<svg xmlns="http://www.w3.org/2000/svg" viewBox="0 0 96.45 51.08"><defs><style>.cls-1{fill:#fff;}.cls-2{fill:#001328;}</style></defs><title>CountdownPoint</title><g id="Layer_2" data-name="Layer 2"><g id="Countdown_clock" data-name="Countdown clock"><path class="cls-1" d="M96.43,33.32a13.33,13.33,0,0,0-4.24-9.13,13.68,13.68,0,0,0-1.2-1l-.07-.05,0-.1c0-.09,0-.17,0-.25.94-5.76-2.29-11.51-7.51-13.34l-.09,0V9.31A8.78,8.78,0,0,0,81.77,4.2,7.87,7.87,0,0,0,76.51.88l-.16,0A9.72,9.72,0,0,0,68.88,3L68.79,3,68.71,3A16,16,0,0,0,62,.2C54.36-1,46.67,3.63,43.76,11.33l0,.11-.1,0c-10.28-1-18.7,7.8-24.27,13.61a10.49,10.49,0,0,1-9.77,3.15,20.21,20.21,0,0,1-7.91-3.36,1,1,0,0,0-1.29.08,1.15,1.15,0,0,0-.27,1.35c4.33,9,9.71,14.11,16,15.13a16.78,16.78,0,0,0,8.86-1.15,22.61,22.61,0,0,1,8.17-1.57h.1l0,.1A20.5,20.5,0,0,0,37,45.51a15.44,15.44,0,0,0,9.35,5.38A15.63,15.63,0,0,0,59.2,47.07l.07-.06.09,0a18.18,18.18,0,0,0,5.17,1.66,18.72,18.72,0,0,0,14.6-3.92l.08-.07.09.06a9.8,9.8,0,0,0,4.46,2,10.2,10.2,0,0,0,9.51-3.68A14.08,14.08,0,0,0,96.43,33.32Zm-4.74,8.29a8.09,8.09,0,0,1-7.57,2.93,7.84,7.84,0,0,1-4-2l-.06,0-.17-.17-.11-.11A6.76,6.76,0,0,1,77.93,38a7,7,0,0,1,1.6-4.9A4.8,4.8,0,0,1,84,31.32a4.68,4.68,0,0,1,2.41,1.18,1,1,0,0,0,.52.25,1,1,0,0,0,1-.38,1.13,1.13,0,0,0,.26-.82,1.08,1.08,0,0,0-.35-.74,6.65,6.65,0,0,0-3.45-1.69A6.87,6.87,0,0,0,78,31.62a9.33,9.33,0,0,0-2.13,6.52,9,9,0,0,0,1.76,4.92l.1.13-.13.09a16.66,16.66,0,0,1-12.67,3.23,15.86,15.86,0,0,1-3.82-1.11l-.18-.08.12-.16a14.23,14.23,0,0,0,3-7.93,13.91,13.91,0,0,0-3.16-9.91,10.13,10.13,0,0,0-6.22-3.58,9.29,9.29,0,0,0-1.06-.12,10.39,10.39,0,0,0-7.71,2.88,9.54,9.54,0,0,0-3,6.36A9.27,9.27,0,0,0,45,39.49a6.88,6.88,0,0,0,4.18,2.42,7.07,7.07,0,0,0,5.94-1.86,1.21,1.21,0,0,0,.36-.78,1.1,1.1,0,0,0-.26-.79,1,1,0,0,0-.62-.36,1.05,1.05,0,0,0-.87.27A4.87,4.87,0,0,1,46.6,38a7.3,7.3,0,0,1,.64-9.86,8.33,8.33,0,0,1,6.19-2.3,6.25,6.25,0,0,1,.87.09,8.06,8.06,0,0,1,5,2.87,11.67,11.67,0,0,1,2.65,8.3,11.91,11.91,0,0,1-3.07,7.32c-.2.21-.42.44-.65.65l-.53.48-.13.1a13.34,13.34,0,0,1-19-1.64,18.18,18.18,0,0,1-3.2-5.6c-.19-.53-.37-1.12-.54-1.78l0-.15h-.15c-.61,0-1.19,0-1.76,0a24.54,24.54,0,0,0-8.66,1.7,14.71,14.71,0,0,1-7.84,1C11.75,38.43,7.58,35,4,29l-.24-.41.43.19a20.62,20.62,0,0,0,5.09,1.57A12.38,12.38,0,0,0,20.81,26.6c7.26-7.56,14.5-14.22,23.3-12.89l.06,0h.15a18.17,18.17,0,0,1,4.79,1.55.87.87,0,0,0,.26.08,1.06,1.06,0,0,0,1.14-.64,1.12,1.12,0,0,0-.5-1.47,19.12,19.12,0,0,0-4-1.43l-.16-.05.06-.16c2.66-6.4,9.29-10.27,15.77-9.22a14,14,0,0,1,5.73,2.34,8.29,8.29,0,0,1,.75.57,1.08,1.08,0,0,0,1.35-.07l0,0c.2-.18.39-.34.58-.49A7.68,7.68,0,0,1,76,3.06l.17,0a5.9,5.9,0,0,1,3.87,2.46,6.62,6.62,0,0,1,1.19,3.66,6.29,6.29,0,0,1-.07,1.16,4,4,0,0,1-.11.54,5,5,0,0,1-1.76,2.75,4.52,4.52,0,0,1-3.5,1h0a3.68,3.68,0,0,1-2.94-4.21A1.09,1.09,0,0,0,72,9.16a1.1,1.1,0,0,0-1.2,1,5.87,5.87,0,0,0,4.64,6.72l.11,0a6.6,6.6,0,0,0,5.07-1.43A7.26,7.26,0,0,0,83,11.84l0-.16.14.06a9.77,9.77,0,0,1,5.72,10.52,1.54,1.54,0,0,1,0,.19A10.46,10.46,0,0,1,88.53,24l-.06.18.15.08a13.21,13.21,0,0,1,1.42,1c.24.19.5.41.76.65a11.09,11.09,0,0,1,3.52,7.6A11.7,11.7,0,0,1,91.69,41.61Z"/><path class="cls-2" d="M91.69,41.61a8.09,8.09,0,0,1-7.57,2.93,7.84,7.84,0,0,1-4-2l-.06,0-.17-.17-.11-.11A6.76,6.76,0,0,1,77.93,38a7,7,0,0,1,1.6-4.9A4.8,4.8,0,0,1,84,31.32a4.68,4.68,0,0,1,2.41,1.18,1,1,0,0,0,.52.25,1,1,0,0,0,1-.38,1.13,1.13,0,0,0,.26-.82,1.08,1.08,0,0,0-.35-.74,6.65,6.65,0,0,0-3.45-1.69A6.87,6.87,0,0,0,78,31.62a9.33,9.33,0,0,0-2.13,6.52,9,9,0,0,0,1.76,4.92l.1.13-.13.09a16.66,16.66,0,0,1-12.67,3.23,15.86,15.86,0,0,1-3.82-1.11l-.18-.08.12-.16a14.23,14.23,0,0,0,3-7.93,13.91,13.91,0,0,0-3.16-9.91,10.13,10.13,0,0,0-6.22-3.58,9.29,9.29,0,0,0-1.06-.12,10.39,10.39,0,0,0-7.71,2.88,9.54,9.54,0,0,0-3,6.36A9.27,9.27,0,0,0,45,39.49a6.88,6.88,0,0,0,4.18,2.42,7.07,7.07,0,0,0,5.94-1.86,1.21,1.21,0,0,0,.36-.78,1.1,1.1,0,0,0-.26-.79,1,1,0,0,0-.62-.36,1.05,1.05,0,0,0-.87.27A4.87,4.87,0,0,1,46.6,38a7.3,7.3,0,0,1,.64-9.86,8.33,8.33,0,0,1,6.19-2.3,6.25,6.25,0,0,1,.87.09,8.06,8.06,0,0,1,5,2.87,11.67,11.67,0,0,1,2.65,8.3,11.91,11.91,0,0,1-3.07,7.32c-.2.21-.42.44-.65.65l-.53.48-.13.1a13.34,13.34,0,0,1-19-1.64,18.18,18.18,0,0,1-3.2-5.6c-.19-.53-.37-1.12-.54-1.78l0-.15h-.15c-.61,0-1.19,0-1.76,0a24.54,24.54,0,0,0-8.66,1.7,14.71,14.71,0,0,1-7.84,1C11.75,38.43,7.58,35,4,29l-.24-.41.43.19a20.62,20.62,0,0,0,5.09,1.57A12.38,12.38,0,0,0,20.81,26.6c7.26-7.56,14.5-14.22,23.3-12.89l.06,0h.15a18.17,18.17,0,0,1,4.79,1.55.87.87,0,0,0,.26.08,1.06,1.06,0,0,0,1.14-.64,1.12,1.12,0,0,0-.5-1.47,19.12,19.12,0,0,0-4-1.43l-.16-.05.06-.16c2.66-6.4,9.29-10.27,15.77-9.22a14,14,0,0,1,5.73,2.34,8.29,8.29,0,0,1,.75.57,1.08,1.08,0,0,0,1.35-.07l0,0c.2-.18.39-.34.58-.49A7.68,7.68,0,0,1,76,3.06l.17,0a5.9,5.9,0,0,1,3.87,2.46,6.62,6.62,0,0,1,1.19,3.66,6.29,6.29,0,0,1-.07,1.16,4,4,0,0,1-.11.54,5,5,0,0,1-1.76,2.75,4.52,4.52,0,0,1-3.5,1h0a3.68,3.68,0,0,1-2.94-4.21A1.09,1.09,0,0,0,72,9.16a1.1,1.1,0,0,0-1.2,1,5.87,5.87,0,0,0,4.64,6.72l.11,0a6.6,6.6,0,0,0,5.07-1.43A7.26,7.26,0,0,0,83,11.84l0-.16.14.06a9.77,9.77,0,0,1,5.72,10.52,1.54,1.54,0,0,1,0,.19A10.46,10.46,0,0,1,88.53,24l-.06.18.15.08a13.21,13.21,0,0,1,1.42,1c.24.19.5.41.76.65a11.09,11.09,0,0,1,3.52,7.6A11.7,11.7,0,0,1,91.69,41.61Z"/></g></g></svg>